<svg xmlns="http://www.w3.org/2000/svg" viewBox="0 0 148.33 67.55"><defs><style>.a{fill:#202020;}.b{fill:#5dd500;}.c{fill:none;stroke:#202020;stroke-miterlimit:10;stroke-width:0.5px;}</style></defs><title>icon</title><path class="a" d="M17.66,17.65v9.72H15.89V2.17h6.77c2.92,0,6.66,1.44,6.66,4.82v5.8c0,3.24-3.35,4.86-6.69,4.86h-5Zm5-1.8c2.45,0,4.93-1,4.93-3.06V7c0-2.3-3.06-3-4.9-3.06h-5V15.85h5Z" transform="translate(-0.61 -1.88)"/><path class="a" d="M44.48,25.53v1.84H39.26c-3.46,0-6.84-1.4-6.84-5.4V2.17h1.84V22c0,2.7,2.81,3.56,5,3.56h5.22Z" transform="translate(-0.61 -1.88)"/><path class="a" d="M62.4,6.78h0V27.36h-1.8V17.5H49v9.86h-1.8V6.78a4.23,4.23,0,0,1,2.23-3.71c2.63-1.58,8.17-1.58,10.76,0A4.23,4.23,0,0,1,62.4,6.78ZM49,6.78V15.7H60.64V6.78a2.61,2.61,0,0,0-1.4-2.2c-2.05-1.26-6.87-1.22-8.89,0A2.57,2.57,0,0,0,49,6.78Z" transform="translate(-0.61 -1.88)"/><path class="a" d="M81.66,27.36H79.76L68.92,7,68,4.62H67.88L68.2,7.17V27.36H66.4V2.17h1.94L79.18,22.51l0.9,2.38h0.11l-0.32-2.56V2.17h1.8v25.2Z" transform="translate(-0.61 -1.88)"/><path class="a" d="M84.47,2.17H100V3.75H93.15L93.08,27.36H91.24L91.31,3.75H84.47V2.17Z" transform="translate(-0.61 -1.88)"/><path class="b" d="M116.4,10.81a4.46,4.46,0,0,1-2.63,4,4.37,4.37,0,0,1,2.63,3.92v3.82c0,3.35-3.6,4.82-6.52,4.86H102.4V25.53h7.31v0l0.14,0c1.87,0,4.72-.86,4.72-3V18.69c0-2.16-2.84-3.13-4.72-3.13H102.4V14h7.45c1.87,0,4.72-1,4.72-3.17V7c0-2.16-2.84-3-4.72-3H102.4V2.13l7.49,0c2.92,0,6.52,1.48,6.52,4.82v3.82Z" transform="translate(-0.61 -1.88)"/><path class="a" d="M119.79,27.36V2.13h8.75c2.92,0,6.55,1.48,6.55,4.86V22.47c0,3.46-3.71,4.9-6.8,4.9h-8.5ZM133.25,7c0-2.16-2.88-3.06-4.75-3.06h-6.87v21.6h6.66c1.69,0,4.25-.58,4.82-2.3C133.36,22.51,133.25,10.05,133.25,7Z" transform="translate(-0.61 -1.88)"/><path class="a" d="M36.19,67.4a1.86,1.86,0,0,1-1.55,1.75,6.26,6.26,0,0,1-2.75,0,1.92,1.92,0,0,1-1.64-1.75V61.27a2,2,0,0,1,1.89-1.82,6.11,6.11,0,0,1,2.62.11,1.82,1.82,0,0,1,1.43,1.71h-0.7a1.18,1.18,0,0,0-.94-1.05,5.22,5.22,0,0,0-2.28-.08,1.36,1.36,0,0,0-1.32,1.13v6.15a1.26,1.26,0,0,0,1.12,1.08,5.4,5.4,0,0,0,2.37,0,1.21,1.21,0,0,0,1.05-1.06h0.7Z" transform="translate(-0.61 -1.88)"/><path class="a" d="M41.59,64.24a0.92,0.92,0,0,0-.17-0.57A1.84,1.84,0,0,0,40.24,63a3.26,3.26,0,0,0-1.11,0,1.86,1.86,0,0,0-1.29.73l-0.6-.38C38.07,62,41.07,62,42,63.24a1.76,1.76,0,0,1,.29,1.05V68a0.6,0.6,0,0,0,.69.66v0.63a1.18,1.18,0,0,1-1.26-.56,2.8,2.8,0,0,1-2,.73,4.29,4.29,0,0,1-1-.14,2.08,2.08,0,0,1-.7-3.75,5.07,5.07,0,0,1,3.64-.41v-0.9Zm0,1.54A4.21,4.21,0,0,0,38.4,66a1.41,1.41,0,0,0,.45,2.58,3.12,3.12,0,0,0,.83.1c0.73,0,1.92-.28,1.92-1.18V65.78Z" transform="translate(-0.61 -1.88)"/><path class="a" d="M44,69.25V62.37h0.69v0.76a2.81,2.81,0,0,1,2.91-.76L47.47,63c-0.92-.31-2.77.17-2.77,1.29v4.93H44Z" transform="translate(-0.61 -1.88)"/><path class="a" d="M49.16,67.34a1,1,0,0,0,.17.59,1.82,1.82,0,0,0,1.16.63,2.93,2.93,0,0,0,1.11,0,1.83,1.83,0,0,0,1.3-.71l0.6,0.36a2.44,2.44,0,0,1-1.81,1.05,3.56,3.56,0,0,1-1.22,0,2.64,2.64,0,0,1-1.72-.92,1.79,1.79,0,0,1-.31-1.06V64.18a1.89,1.89,0,0,1,1.61-1.75,3.84,3.84,0,0,1,2,0,2.09,2.09,0,0,1,.43,3.87c-1,.53-2.42.34-3.36,0.34v0.71Zm0-1.33a8.07,8.07,0,0,0,3-.32,1.38,1.38,0,0,0-.28-2.59,3.36,3.36,0,0,0-1.67,0,1.24,1.24,0,0,0-1.08,1.08V66Z" transform="translate(-0.61 -1.88)"/><path class="a" d="M65.11,59.44H66v9.81H65.26V61.39l0.1-1h0L65,61.34,62.42,66.9H61.85l-2.61-5.56-0.29-.94h0l0.1,1v7.86H58.29V59.44h0.87l3,6.53Z" transform="translate(-0.61 -1.88)"/><path class="a" d="M68.23,67.34a1,1,0,0,0,.17.59,1.83,1.83,0,0,0,1.16.63,2.93,2.93,0,0,0,1.11,0,1.83,1.83,0,0,0,1.3-.71l0.6,0.36a2.44,2.44,0,0,1-1.81,1.05,3.55,3.55,0,0,1-1.22,0,2.64,2.64,0,0,1-1.72-.92,1.79,1.79,0,0,1-.31-1.06V64.18a1.89,1.89,0,0,1,1.61-1.75,3.84,3.84,0,0,1,2,0,2.09,2.09,0,0,1,.43,3.87c-1,.53-2.42.34-3.36,0.34v0.71Zm0-1.33a8.07,8.07,0,0,0,3-.32A1.38,1.38,0,0,0,71,63.1a3.36,3.36,0,0,0-1.67,0,1.24,1.24,0,0,0-1.08,1.08V66Z" transform="translate(-0.61 -1.88)"/><path class="a" d="M79.92,69.38l-2.06-2a1.59,1.59,0,0,1-.52-1.27V59.44H78v6.68a0.75,0.75,0,0,0,.28.71l1.75,1.74,1.74-1.74a0.72,0.72,0,0,0,.28-0.71h0V59.44H82.8v6.67h0a0.74,0.74,0,0,0,.27.71l1.75,1.74,1.75-1.74a0.74,0.74,0,0,0,.27-0.71V59.44h0.71v6.67A1.56,1.56,0,0,1,87,67.39l-2,2H84.67a28.4,28.4,0,0,1-2.23-2.27,24.26,24.26,0,0,1-2.23,2.27H79.92Z" transform="translate(-0.61 -1.88)"/><path class="a" d="M89.66,67.34a1,1,0,0,0,.17.59,1.82,1.82,0,0,0,1.16.63,2.93,2.93,0,0,0,1.11,0,1.83,1.83,0,0,0,1.3-.71L94,68.21a2.44,2.44,0,0,1-1.81,1.05,3.56,3.56,0,0,1-1.22,0,2.64,2.64,0,0,1-1.72-.92,1.79,1.79,0,0,1-.31-1.06V64.18a1.89,1.89,0,0,1,1.61-1.75,3.84,3.84,0,0,1,2,0A2.09,2.09,0,0,1,93,66.29c-1,.53-2.42.34-3.36,0.34v0.71Zm0-1.33a8.07,8.07,0,0,0,3-.32,1.38,1.38,0,0,0-.28-2.59,3.36,3.36,0,0,0-1.67,0,1.24,1.24,0,0,0-1.08,1.08V66Z" transform="translate(-0.61 -1.88)"/><path class="a" d="M99.56,64.24a0.92,0.92,0,0,0-.17-0.57A1.84,1.84,0,0,0,98.22,63a3.26,3.26,0,0,0-1.11,0,1.87,1.87,0,0,0-1.29.73l-0.6-.38C96,62,99,62,100,63.24a1.76,1.76,0,0,1,.29,1.05V68a0.6,0.6,0,0,0,.69.66v0.63a1.18,1.18,0,0,1-1.26-.56,2.8,2.8,0,0,1-2,.73,4.28,4.28,0,0,1-1-.14,2.08,2.08,0,0,1-.7-3.75,5.07,5.07,0,0,1,3.64-.41v-0.9Zm0,1.54a4.21,4.21,0,0,0-3.19.27,1.41,1.41,0,0,0,.45,2.58,3.12,3.12,0,0,0,.83.1c0.73,0,1.92-.28,1.92-1.18V65.78Z" transform="translate(-0.61 -1.88)"/><path class="a" d="M102,69.25V62.37h0.69v0.76a2.81,2.81,0,0,1,2.91-.76l-0.11.66c-0.92-.31-2.77.17-2.77,1.29v4.93H102Z" transform="translate(-0.61 -1.88)"/><path class="a" d="M116.59,59.44h0.87v9.81h-0.71V61.39l0.1-1h0l-0.29.94L113.9,66.9h-0.57l-2.61-5.56-0.29-.94h0l0.1,1v7.86h-0.71V59.44h0.87l3,6.53Z" transform="translate(-0.61 -1.88)"/><path class="a" d="M119.71,67.34a1,1,0,0,0,.17.59,1.82,1.82,0,0,0,1.16.63,2.93,2.93,0,0,0,1.11,0,1.83,1.83,0,0,0,1.3-.71l0.6,0.36a2.44,2.44,0,0,1-1.81,1.05,3.56,3.56,0,0,1-1.22,0,2.64,2.64,0,0,1-1.72-.92,1.79,1.79,0,0,1-.31-1.06V64.18a1.89,1.89,0,0,1,1.61-1.75,3.84,3.84,0,0,1,2,0,2.09,2.09,0,0,1,.43,3.87c-1,.53-2.42.34-3.36,0.34v0.71Zm0-1.33a8.07,8.07,0,0,0,3-.32,1.38,1.38,0,0,0-.28-2.59,3.36,3.36,0,0,0-1.67,0,1.24,1.24,0,0,0-1.08,1.08V66Z" transform="translate(-0.61 -1.88)"/><line class="c" y1="41.45" x2="148.33" y2="41.45"/></svg>