<svg id="Layer_1" data-name="Layer 1" xmlns="http://www.w3.org/2000/svg" viewBox="0 0 534.43 167.78"><defs><style>.cls-1,.cls-2{stroke:#231f20;stroke-miterlimit:10;}.cls-2{fill:none;}.cls-3{font-size:85px;fill:#231f20;font-family:Dekar, Dekar;letter-spacing:0.09em;}</style></defs><title>plant3d_logo</title><path class="cls-1" d="M56.08,471q1.29-27.29,2.57-54.58c.28-5.85.6-11.69.85-17.54a4.74,4.74,0,0,1,2.25-4.26c19.31-12.87,38.45-26,57.9-38.65a18.93,18.93,0,0,1,14.46-2.75,35.84,35.84,0,0,1,12.75,5.56c17.84,12.06,35.82,23.94,53.78,35.83a4.13,4.13,0,0,1,2.13,3.8c.45,16.47,1,32.94,1.6,49.41.27,8.16.51,16.33.86,24.49.07,1.56-.8,2.15-1.87,2.82L140.75,514c-2.82,1.76-5.6,3.6-8.49,5.22a3.1,3.1,0,0,1-2.64,0Q93.41,497,57.25,474.7C55.55,473.66,56.08,472.31,56.08,471Zm32.23-71.61,42.62,71,40.91-71L130.7,358.49ZM57.58,472.77l62.31,2.47L79.19,407.55Zm145.9.12-22.43-65.33-39,67.68Zm-24-73.1a21.3,21.3,0,0,1-3.92.17c-2-.27-2.9.72-3.82,2.32q-19.68,34.32-39.48,68.56c-.34.59-.79,1.11-1.41,2-.63-1-1.08-1.58-1.47-2.23q-20.65-34.39-41.32-68.77c-.43-.72-1.2-1.62-1.91-1.72a38.64,38.64,0,0,0-5.37-.08c-.94,3.24-1.09,5.9.78,9,13.12,21.45,26,43.06,39,64.57a10.79,10.79,0,0,0,3.12,2.72c4.84,3.46,9.72,3.12,14.54,0a9,9,0,0,0,2.94-2.58c12.45-21.43,24.74-42.95,37.28-64.32A11.21,11.21,0,0,0,179.51,399.8ZM130.22,518v-2.78c0-10.42-.1-20.84.07-31.26,0-2.57-.64-4-3.11-4.68s-4.94-2.49-7.47-2.62c-16.1-.83-32.21-1.36-48.32-1.92-3.7-.13-7.4,0-11.3,0Zm1.48,0,69.4-43.19a9.91,9.91,0,0,0-3.36-.36c-14.72.56-29.45,1.1-44.17,1.72-6.87.29-13.87-.15-20.14,3.7-1.27.78-1.87,1.37-1.86,2.9.07,11,0,22,0,33C131.6,516.35,131.66,517,131.71,518ZM80.94,398.53a41.89,41.89,0,0,0,4.73,0,4.77,4.77,0,0,0,2.62-1.1q20.51-19.69,40.9-39.5c1.38-1.34,2.16-1.24,3.48.09,12.27,12.4,24.69,24.65,36.86,37.14,2.56,2.63,5.08,3.9,8.68,3.39,1.22-.17,2.05-.45,1.89-1.69a4.89,4.89,0,0,0-1.1-2.73q-18.77-18.52-37.66-36.92a4.75,4.75,0,0,0-1.78-1.15c-5.08-1.61-10.19-2.67-15.39-.45-1.24.53-2.73.8-3.65,1.67-13,12.2-25.82,24.5-38.77,36.7C80.29,395.29,79.84,396.53,80.94,398.53ZM201.31,397c-6.24-.32-12.3-.65-18.36-.87-.49,0-1.46.82-1.44,1.22.15,3.13-.11,6.45.85,9.35,5.46,16.57,11.22,33.05,16.89,49.56,1.29,3.77,2.62,7.52,3.93,11.28l.4-.1ZM57.63,466.86l.34.1c.2-.58.42-1.16.61-1.74q2.25-6.78,4.49-13.56c5-14.92,10-29.82,14.82-44.79,1.1-3.42,2.07-7,.75-10.87L61,397.12ZM148.4,361.52l-.23.34c10.07,9.87,20.21,19.67,30.17,29.65,2.07,2.07,4.12,3.3,7.08,3.34,4.35,0,8.7.38,13,.6l.11-.47Zm-35.85,1.22-.27-.33L63.81,395l.16.52c4.49-.3,9-.54,13.48-1a5,5,0,0,0,2.8-1.21c7.55-7,15-14.16,22.53-21.27C106,369,109.29,365.86,112.54,362.74Z" transform="translate(-55.5 -352.26)"/><path class="cls-2" d="M88.31,399.35l42.39-40.87,41.14,40.91-40.91,71Z" transform="translate(-55.5 -352.26)"/><path class="cls-2" d="M57.58,472.77l21.61-65.22,40.71,67.69Z" transform="translate(-55.5 -352.26)"/><path class="cls-2" d="M203.48,472.9,142,475.24l39-67.68Z" transform="translate(-55.5 -352.26)"/><path class="cls-2" d="M179.51,399.8a11.21,11.21,0,0,1-1,9.54c-12.54,21.38-24.83,42.89-37.28,64.32a9,9,0,0,1-2.94,2.58c-4.82,3.15-9.71,3.49-14.54,0a10.79,10.79,0,0,1-3.12-2.72c-13-21.51-25.9-43.12-39-64.57-1.87-3.05-1.72-5.72-.78-9a38.64,38.64,0,0,1,5.37.08c.71.1,1.47,1,1.91,1.72q20.69,34.36,41.32,68.77c.39.65.84,1.28,1.47,2.23.62-.86,1.07-1.38,1.41-2q19.77-34.27,39.48-68.56c.92-1.6,1.8-2.59,3.82-2.32A21.3,21.3,0,0,0,179.51,399.8Z" transform="translate(-55.5 -352.26)"/><path class="cls-2" d="M130.22,518,60.1,474.74c3.9,0,7.61-.11,11.3,0,16.11.57,32.22,1.09,48.32,1.92,2.53.13,4.93,1.87,7.47,2.62s3.15,2.11,3.11,4.68c-.17,10.42-.07,20.84-.07,31.26Z" transform="translate(-55.5 -352.26)"/><path class="cls-2" d="M131.71,518c0-1-.1-1.64-.1-2.26,0-11,0-22,0-33,0-1.53.6-2.12,1.86-2.9,6.27-3.85,13.27-3.41,20.14-3.7,14.72-.62,29.45-1.16,44.17-1.72a9.91,9.91,0,0,1,3.36.36Z" transform="translate(-55.5 -352.26)"/><path class="cls-2" d="M80.94,398.53c-1.1-2-.65-3.24.8-4.61,13-12.2,25.81-24.5,38.77-36.7.92-.87,2.42-1.14,3.65-1.67,5.2-2.22,10.31-1.15,15.39.45a4.75,4.75,0,0,1,1.78,1.15Q160.2,375.59,179,394.09a4.89,4.89,0,0,1,1.1,2.73c.16,1.24-.67,1.52-1.89,1.69-3.6.51-6.12-.76-8.68-3.39-12.17-12.5-24.59-24.74-36.86-37.14-1.32-1.33-2.09-1.43-3.48-.09q-20.38,19.82-40.9,39.5a4.77,4.77,0,0,1-2.62,1.1A41.89,41.89,0,0,1,80.94,398.53Z" transform="translate(-55.5 -352.26)"/><path class="cls-2" d="M201.31,397l2.26,70.43-.4.1c-1.31-3.76-2.64-7.51-3.93-11.28-5.67-16.51-11.42-33-16.89-49.56-1-2.9-.7-6.21-.85-9.35,0-.4,1-1.24,1.44-1.22C189,396.36,195.07,396.69,201.31,397Z" transform="translate(-55.5 -352.26)"/><path class="cls-2" d="M57.63,466.86,61,397.12,78.64,396c1.32,3.83.35,7.46-.75,10.87-4.82,15-9.86,29.86-14.82,44.79q-2.25,6.78-4.49,13.56c-.19.58-.41,1.16-.61,1.74Z" transform="translate(-55.5 -352.26)"/><path class="cls-2" d="M148.4,361.52,198.58,395l-.11.47c-4.35-.21-8.7-.55-13-.6-3,0-5-1.26-7.08-3.34-10-10-20.1-19.78-30.17-29.65Z" transform="translate(-55.5 -352.26)"/><path class="cls-2" d="M112.54,362.74c-3.26,3.12-6.51,6.25-9.78,9.35-7.49,7.11-15,14.22-22.53,21.27a5,5,0,0,1-2.8,1.21c-4.48.41-9,.65-13.48,1l-.16-.52,48.47-32.59Z" transform="translate(-55.5 -352.26)"/><text class="cls-3" transform="translate(193.5 110.66)">PLANT3D</text></svg>