<?xml version="1.0" encoding="utf-8"?>
<!-- Generator: Adobe Illustrator 21.0.0, SVG Export Plug-In . SVG Version: 6.00 Build 0)  -->
<svg version="1.1" id="Layer_1" xmlns="http://www.w3.org/2000/svg" xmlns:xlink="http://www.w3.org/1999/xlink" x="0px" y="0px"
	 viewBox="0 0 379.5 75.7" style="enable-background:new 0 0 379.5 75.7;" xml:space="preserve">
<style type="text/css">
	.st0{fill:#2D2D2D;}
	.st1{fill:none;stroke:#303030;stroke-miterlimit:10;}
</style>
<title>szeretnek</title>
<path class="st0" d="M69.7,44c0.4,0.9,1,1.6,1.8,2.1c0.8,0.5,1.7,0.9,2.7,1.1c1.1,0.2,2.2,0.3,3.3,0.3c0.7,0,1.5-0.1,2.2-0.3
	c0.8-0.2,1.5-0.5,2.2-0.9c0.7-0.4,1.3-1,1.7-1.6c0.5-0.7,0.7-1.5,0.7-2.4c0-0.7-0.2-1.3-0.5-1.9c-0.3-0.5-0.7-1-1.2-1.4
	c-0.5-0.4-1.1-0.7-1.7-0.9c-0.6-0.2-1.2-0.4-1.8-0.6l-5.7-1.4c-0.7-0.2-1.5-0.4-2.2-0.7c-0.7-0.3-1.3-0.7-1.8-1.1
	c-0.5-0.5-1-1.1-1.3-1.8c-0.3-0.8-0.5-1.7-0.5-2.6c0-0.7,0.1-1.5,0.4-2.2c0.3-0.9,0.7-1.7,1.3-2.4c0.8-0.8,1.7-1.5,2.7-1.9
	c1.4-0.6,2.9-0.8,4.4-0.8c1.2,0,2.5,0.2,3.6,0.5c1.1,0.3,2.1,0.8,3,1.5c1.9,1.4,2.9,3.7,2.8,6h-2.4c0-0.9-0.3-1.8-0.7-2.6
	c-0.4-0.7-0.9-1.3-1.6-1.8c-0.7-0.5-1.4-0.9-2.2-1.1c-0.8-0.3-1.7-0.4-2.6-0.4c-0.8,0-1.6,0.1-2.4,0.3c-0.7,0.2-1.4,0.4-2.1,0.9
	c-0.6,0.4-1.1,0.9-1.4,1.6c-0.4,0.7-0.6,1.6-0.5,2.4c0,0.5,0.1,1.1,0.3,1.6c0.2,0.4,0.5,0.8,0.8,1.1c0.4,0.3,0.8,0.6,1.2,0.8
	c0.5,0.2,1,0.4,1.5,0.5l6.3,1.6c0.9,0.2,1.7,0.5,2.6,0.9c0.8,0.3,1.5,0.8,2.1,1.3c0.6,0.5,1.1,1.2,1.4,1.9c0.4,0.9,0.5,1.8,0.5,2.7
	c0,0.4,0,0.8-0.1,1.1c-0.1,0.5-0.2,1-0.4,1.5c-0.3,0.6-0.6,1.1-1,1.6c-0.5,0.6-1,1.1-1.7,1.5c-0.9,0.5-1.8,0.9-2.8,1.1
	c-1.3,0.3-2.6,0.4-3.9,0.4c-1.4,0-2.8-0.2-4.2-0.5c-1.2-0.3-2.3-0.8-3.3-1.6c-0.9-0.7-1.7-1.7-2.1-2.8c-0.5-1.3-0.7-2.7-0.6-4.1h2.4
	C69,41.8,69.3,43,69.7,44z"/>
<path class="st0" d="M104.1,47.3v1.9H88.6v-1.8l12.1-14.8H89.4v-1.9h14.2v1.6l-12.3,15L104.1,47.3L104.1,47.3z"/>
<path class="st0" d="M108.6,43c0.2,0.8,0.6,1.6,1.1,2.4c0.5,0.7,1.2,1.3,1.9,1.7c0.8,0.5,1.8,0.7,2.8,0.7c1.4,0.1,2.8-0.4,3.9-1.3
	c1-0.9,1.7-2.1,1.9-3.5h2.3c-0.3,1.9-1.3,3.6-2.6,4.9c-1.5,1.2-3.5,1.9-5.4,1.7c-1.3,0-2.6-0.2-3.8-0.8c-1-0.5-1.9-1.2-2.6-2.1
	c-0.7-0.9-1.2-2-1.5-3.1c-0.3-1.2-0.5-2.5-0.5-3.8c0-1.2,0.2-2.4,0.5-3.6c0.3-1.1,0.8-2.2,1.5-3.1c0.7-0.9,1.6-1.7,2.6-2.2
	c1.2-0.6,2.5-0.9,3.8-0.9c2.6-0.1,5,1.1,6.4,3.3c0.7,1,1.2,2.2,1.4,3.4c0.3,1.3,0.4,2.5,0.4,3.8h-14.3
	C108.2,41.4,108.3,42.2,108.6,43z M119.8,36.1c-0.3-0.8-0.7-1.5-1.2-2.1c-0.5-0.6-1.1-1.1-1.8-1.5c-0.8-0.4-1.6-0.6-2.4-0.6
	c-0.9,0-1.7,0.2-2.5,0.6c-0.7,0.4-1.3,0.9-1.8,1.5c-0.5,0.7-0.9,1.4-1.2,2.2c-0.3,0.8-0.5,1.6-0.6,2.5h12
	C120.2,37.8,120.1,36.9,119.8,36.1z"/>
<path class="st0" d="M127.7,30.6v4.4h0.1c0.5-1.4,1.4-2.6,2.7-3.5c1.3-0.8,2.8-1.2,4.3-1.1v2.3c-1-0.1-1.9,0.1-2.8,0.4
	c-0.8,0.3-1.6,0.8-2.2,1.4c-0.6,0.6-1.1,1.3-1.4,2.1c-0.3,0.9-0.5,1.8-0.5,2.7v9.9h-2.3V30.6H127.7z"/>
<path class="st0" d="M137.9,43c0.2,0.8,0.6,1.6,1.1,2.4c0.5,0.7,1.2,1.3,1.9,1.7c0.8,0.5,1.8,0.7,2.8,0.7c1.4,0.1,2.8-0.4,3.9-1.3
	c1-0.9,1.7-2.1,1.9-3.5h2.2c-0.3,1.9-1.3,3.6-2.6,4.9c-1.5,1.2-3.5,1.9-5.4,1.7c-1.3,0-2.6-0.2-3.8-0.8c-1-0.5-1.9-1.2-2.6-2.1
	c-0.7-0.9-1.2-2-1.5-3.1c-0.3-1.2-0.5-2.5-0.5-3.8c0-1.2,0.2-2.4,0.5-3.6c0.3-1.1,0.8-2.2,1.5-3.1c0.7-0.9,1.6-1.7,2.6-2.2
	c1.2-0.6,2.5-0.9,3.8-0.9c2.6-0.1,5,1.1,6.4,3.3c0.7,1,1.2,2.2,1.4,3.4c0.3,1.3,0.4,2.5,0.4,3.8h-14.3
	C137.6,41.4,137.7,42.2,137.9,43z M149.2,36.1c-0.3-0.8-0.7-1.5-1.2-2.1c-0.5-0.6-1.1-1.1-1.8-1.5c-0.8-0.4-1.6-0.6-2.4-0.6
	c-0.9,0-1.7,0.2-2.5,0.6c-0.7,0.4-1.3,0.9-1.8,1.5c-0.5,0.7-0.9,1.4-1.2,2.2c-0.3,0.8-0.5,1.6-0.6,2.5h12
	C149.6,37.8,149.4,36.9,149.2,36.1L149.2,36.1z"/>
<path class="st0" d="M162.3,30.6v1.9h-3.8V45c0,0.6,0.1,1.2,0.3,1.8c0.3,0.5,0.9,0.8,1.5,0.7c0.6,0,1.3,0,1.9-0.1v1.9
	c-0.3,0-0.7,0-1,0c-0.3,0-0.7,0-1,0c-1.8,0.4-3.6-0.7-4-2.5c-0.1-0.5-0.1-1.1,0-1.6V32.5h-3.2v-1.9h3.2V25h2.3v5.6H162.3L162.3,30.6
	z"/>
<path class="st0" d="M167.8,30.6v3.2h0.1c0.4-1.1,1.2-2.1,2.3-2.7c1.1-0.7,2.4-1,3.6-1c1.1,0,2.2,0.1,3.3,0.5
	c0.8,0.3,1.5,0.8,2.1,1.4c0.5,0.6,0.9,1.4,1.1,2.2c0.2,1,0.3,2,0.3,3v12h-2.3V37.6c0-0.7-0.1-1.5-0.2-2.2c-0.1-0.6-0.4-1.2-0.8-1.8
	c-0.4-0.5-0.9-0.9-1.5-1.2c-0.7-0.3-1.5-0.5-2.3-0.4c-0.8,0-1.7,0.2-2.4,0.5c-0.7,0.3-1.3,0.8-1.8,1.3c-0.5,0.6-0.9,1.3-1.1,2
	c-0.3,0.8-0.4,1.7-0.4,2.5v10.8h-2.3V30.6H167.8z"/>
<path class="st0" d="M186.6,43c0.2,0.8,0.6,1.6,1.1,2.4c0.5,0.7,1.2,1.3,1.9,1.7c0.8,0.5,1.8,0.7,2.8,0.7c1.4,0.1,2.8-0.4,3.9-1.3
	c1-0.9,1.7-2.1,1.9-3.5h2.3c-0.3,1.9-1.3,3.6-2.6,4.9c-1.5,1.2-3.5,1.9-5.4,1.7c-1.3,0-2.6-0.2-3.8-0.8c-1-0.5-1.9-1.2-2.6-2.1
	c-0.7-0.9-1.2-2-1.5-3.1c-0.3-1.2-0.5-2.5-0.5-3.8c0-1.2,0.2-2.4,0.5-3.6c0.3-1.1,0.8-2.2,1.5-3.1c0.7-0.9,1.6-1.7,2.6-2.2
	c1.2-0.6,2.5-0.9,3.8-0.9c2.6-0.1,5,1.1,6.4,3.3c0.7,1,1.2,2.2,1.4,3.4c0.3,1.3,0.4,2.5,0.4,3.8h-14.3
	C186.3,41.4,186.4,42.2,186.6,43z M197.8,36.1c-0.3-0.8-0.7-1.5-1.2-2.1c-0.5-0.6-1.1-1.1-1.8-1.5c-0.8-0.4-1.6-0.6-2.4-0.6
	c-0.9,0-1.7,0.2-2.5,0.6c-0.7,0.4-1.3,0.9-1.8,1.5c-0.5,0.6-0.9,1.4-1.2,2.1c-0.3,0.8-0.5,1.6-0.6,2.5h12
	C198.2,37.7,198.1,36.9,197.8,36.1z M189.9,28l3.8-5.1h2.8l-4.7,5.1L189.9,28L189.9,28z"/>
<path class="st0" d="M205.9,23.5v16.1l10.3-9h3l-7.9,6.9l8.5,11.7h-2.8l-7.3-10.1l-3.7,3.1v7.1h-2.3V23.5H205.9L205.9,23.5z"/>
<path class="st0" d="M233.3,43c0.2,0.8,0.6,1.6,1.1,2.4c0.5,0.7,1.2,1.3,1.9,1.7c0.8,0.5,1.8,0.7,2.8,0.7c1.4,0.1,2.8-0.4,3.9-1.3
	c1-0.9,1.7-2.1,1.9-3.5h2.3c-0.3,1.9-1.3,3.6-2.6,4.9c-1.5,1.2-3.5,1.9-5.4,1.7c-1.3,0-2.6-0.2-3.8-0.8c-1-0.5-1.9-1.2-2.6-2.1
	c-0.7-0.9-1.2-2-1.5-3.1c-0.3-1.2-0.5-2.5-0.5-3.8c0-1.2,0.2-2.4,0.5-3.6c0.3-1.1,0.8-2.2,1.5-3.1c0.7-0.9,1.6-1.7,2.6-2.2
	c1.2-0.6,2.5-0.9,3.8-0.9c2.6-0.1,5,1.1,6.4,3.3c0.7,1,1.2,2.2,1.4,3.4c0.3,1.3,0.4,2.5,0.4,3.8H233C233,41.4,233.1,42.2,233.3,43z
	 M244.5,36.1c-0.3-0.8-0.7-1.5-1.2-2.1c-0.5-0.6-1.1-1.1-1.8-1.5c-0.8-0.4-1.6-0.6-2.4-0.6c-0.9,0-1.7,0.2-2.5,0.6
	c-0.7,0.4-1.3,0.9-1.8,1.5c-0.5,0.6-0.9,1.4-1.2,2.1c-0.3,0.8-0.5,1.6-0.6,2.5h12C244.9,37.7,244.8,36.9,244.5,36.1L244.5,36.1z"/>
<path class="st0" d="M265.6,51.4c-0.3,1-0.7,2-1.4,2.8c-0.7,0.8-1.6,1.4-2.5,1.8c-1.2,0.4-2.5,0.6-3.8,0.6c-0.9,0-1.8-0.1-2.7-0.3
	c-0.8-0.2-1.7-0.5-2.4-1c-0.7-0.5-1.3-1.1-1.8-1.8c-0.5-0.8-0.8-1.6-0.8-2.5h2.3c0.1,0.6,0.3,1.2,0.7,1.8c0.3,0.5,0.8,0.8,1.3,1.1
	c0.5,0.3,1.1,0.5,1.6,0.6c0.6,0.1,1.2,0.2,1.8,0.2c2.1,0,3.6-0.6,4.6-1.8c1-1.5,1.5-3.3,1.4-5.2v-2.5h-0.1c-0.5,1.1-1.3,2.1-2.3,2.8
	c-1.1,0.7-2.3,1-3.6,1c-1.3,0-2.6-0.2-3.8-0.7c-1-0.5-1.9-1.1-2.6-2c-0.7-0.9-1.2-1.9-1.5-3c-0.3-1.2-0.5-2.5-0.5-3.7
	c0-1.2,0.2-2.5,0.6-3.6c0.3-1.1,0.9-2.1,1.6-3c0.7-0.9,1.6-1.5,2.6-2c1.1-0.5,2.3-0.8,3.6-0.7c0.7,0,1.4,0.1,2,0.3
	c0.6,0.2,1.2,0.5,1.7,0.8c0.5,0.3,1,0.8,1.4,1.2c0.4,0.4,0.7,0.9,0.9,1.4h0.1v-3.2h2.3v17.1C266,49,265.9,50.2,265.6,51.4z
	 M260.4,46.4c0.7-0.4,1.4-1,1.9-1.7c0.5-0.7,0.9-1.5,1.1-2.4c0.3-0.9,0.4-1.8,0.4-2.7c0-0.9-0.1-1.8-0.3-2.7c-0.2-0.9-0.5-1.7-1-2.5
	c-0.5-0.7-1.1-1.4-1.9-1.8c-0.8-0.5-1.8-0.7-2.8-0.7c-1,0-1.9,0.2-2.8,0.7c-0.8,0.4-1.4,1-1.9,1.8c-0.5,0.7-0.9,1.6-1.1,2.5
	c-0.2,0.9-0.3,1.9-0.3,2.8c0,0.9,0.1,1.8,0.4,2.7c0.2,0.8,0.6,1.7,1.1,2.4c0.5,0.7,1.2,1.3,1.9,1.7c0.8,0.4,1.8,0.7,2.7,0.6
	C258.7,47,259.6,46.8,260.4,46.4L260.4,46.4z"/>
<path class="st0" d="M270.6,30.6l6.1,15.8l5.7-15.8h2.3L276.7,52c-0.3,0.7-0.6,1.4-0.9,2c-0.3,0.5-0.6,0.9-1,1.2
	c-0.4,0.3-0.8,0.5-1.2,0.6c-0.6,0.1-1.2,0.2-1.8,0.2l-1.1-0.1c-0.2,0-0.5-0.1-0.7-0.1v-1.9l0.8,0.1c0.3,0,0.5,0.1,0.8,0.1
	c0.4,0,0.8-0.1,1.2-0.2c0.3-0.1,0.6-0.3,0.9-0.6c0.3-0.3,0.5-0.6,0.6-0.9l0.5-1.2l0.8-2.1l-7.4-18.5L270.6,30.6L270.6,30.6z"/>
<path class="st0" d="M288.7,43c0.2,0.8,0.6,1.6,1.1,2.4c0.5,0.7,1.2,1.3,1.9,1.7c0.8,0.5,1.8,0.7,2.8,0.7c1.4,0.1,2.8-0.4,3.9-1.3
	c1-0.9,1.7-2.1,1.9-3.5h2.3c-0.3,1.9-1.3,3.6-2.6,4.9c-1.5,1.2-3.5,1.9-5.5,1.7c-1.3,0-2.6-0.2-3.8-0.8c-1-0.5-1.9-1.2-2.6-2.1
	c-0.7-0.9-1.2-2-1.5-3.1c-0.3-1.2-0.5-2.5-0.5-3.8c0-1.2,0.2-2.4,0.5-3.6c0.3-1.1,0.8-2.2,1.5-3.1c0.7-0.9,1.6-1.7,2.6-2.2
	c1.2-0.6,2.5-0.9,3.8-0.9c2.6-0.1,5,1.1,6.4,3.3c0.7,1,1.2,2.2,1.4,3.4c0.3,1.3,0.4,2.5,0.4,3.8h-14.3
	C288.3,41.4,288.4,42.2,288.7,43z M299.9,36.1c-0.3-0.8-0.7-1.5-1.2-2.1c-0.5-0.6-1.1-1.1-1.8-1.5c-0.8-0.4-1.6-0.6-2.5-0.6
	c-0.9,0-1.7,0.2-2.5,0.6c-0.7,0.4-1.3,0.9-1.8,1.5c-0.5,0.6-0.9,1.4-1.2,2.1c-0.3,0.8-0.5,1.6-0.6,2.5h12
	C300.3,37.7,300.2,36.9,299.9,36.1L299.9,36.1z"/>
<path class="st0" d="M313.1,30.6v1.9h-3.8V45c0,0.6,0.1,1.2,0.3,1.8c0.3,0.5,0.9,0.8,1.5,0.7c0.6,0,1.3,0,1.9-0.1v1.9
	c-0.3,0-0.7,0-1,0c-0.3,0-0.7,0-1,0c-1.8,0.4-3.6-0.7-4-2.5c-0.1-0.5-0.1-1.1,0-1.6V32.5h-3.3v-1.9h3.2V25h2.3v5.6H313.1L313.1,30.6
	z"/>
<rect x="0.5" y="0.5" class="st1" width="378.5" height="74.7"/>
</svg>
