<svg xmlns="http://www.w3.org/2000/svg" viewBox="0 0 379.54 75.67"><defs><style>.a{fill:#fff;}.b{fill:none;stroke:#fff;stroke-miterlimit:10;}</style></defs><title>szeretnek</title><path class="a" d="M79.94,181.85A5.42,5.42,0,0,0,81.73,184a7.43,7.43,0,0,0,2.68,1.13,15.36,15.36,0,0,0,3.31.34,9.35,9.35,0,0,0,2.2-.29,7.63,7.63,0,0,0,2.21-.92,5.65,5.65,0,0,0,1.71-1.62,4.11,4.11,0,0,0,.68-2.39,3.51,3.51,0,0,0-.49-1.87A4.43,4.43,0,0,0,92.78,177a7.4,7.4,0,0,0-1.71-.88,16.8,16.8,0,0,0-1.84-.56l-5.72-1.4a17,17,0,0,1-2.18-.72,6.18,6.18,0,0,1-1.85-1.15,5.46,5.46,0,0,1-1.28-1.76,6,6,0,0,1-.49-2.56,8.15,8.15,0,0,1,.36-2.2,6.1,6.1,0,0,1,1.35-2.38,7.87,7.87,0,0,1,2.72-1.89,10.9,10.9,0,0,1,4.43-.77,12.93,12.93,0,0,1,3.64.5,9,9,0,0,1,3,1.51,7.27,7.27,0,0,1,2.84,6H93.62a6,6,0,0,0-.67-2.57,5.76,5.76,0,0,0-1.55-1.84,6.79,6.79,0,0,0-2.2-1.12,8.92,8.92,0,0,0-2.61-.38,10.73,10.73,0,0,0-2.43.27,6.08,6.08,0,0,0-2.05.86,4.48,4.48,0,0,0-1.42,1.57,4.91,4.91,0,0,0-.54,2.41,3.72,3.72,0,0,0,.31,1.57,3.29,3.29,0,0,0,.85,1.13,4.49,4.49,0,0,0,1.24.76,9.42,9.42,0,0,0,1.49.47l6.26,1.55a18.1,18.1,0,0,1,2.57.88,8.5,8.5,0,0,1,2.12,1.3,5.47,5.47,0,0,1,1.44,1.89,6.34,6.34,0,0,1,.52,2.7,10.06,10.06,0,0,1-.09,1.15,5.88,5.88,0,0,1-.43,1.53,7.64,7.64,0,0,1-1,1.64A6.1,6.1,0,0,1,93.75,186,10,10,0,0,1,91,187.09a15.91,15.91,0,0,1-3.89.41,16.21,16.21,0,0,1-4.21-.52,9.06,9.06,0,0,1-3.31-1.6,7,7,0,0,1-2.11-2.77,9.09,9.09,0,0,1-.63-4.07h2.45A7.22,7.22,0,0,0,79.94,181.85Z" transform="translate(-10.21 -137.83)"/><path class="a" d="M114.32,185.09V187H98.81v-1.84l12.13-14.83H99.64v-1.91h14.18V170l-12.28,15h12.78Z" transform="translate(-10.21 -137.83)"/><path class="a" d="M118.77,180.86a7,7,0,0,0,1.1,2.36,6.28,6.28,0,0,0,1.91,1.73,5.33,5.33,0,0,0,2.77.68,5.51,5.51,0,0,0,3.89-1.3,6.82,6.82,0,0,0,1.94-3.46h2.27a9.07,9.07,0,0,1-2.65,4.9,7.89,7.89,0,0,1-5.45,1.73,8.65,8.65,0,0,1-3.8-.77,7,7,0,0,1-2.61-2.12,9.25,9.25,0,0,1-1.49-3.13,14.22,14.22,0,0,1-.49-3.76,13.48,13.48,0,0,1,.49-3.6,9.68,9.68,0,0,1,1.49-3.15,7.49,7.49,0,0,1,2.61-2.23,8,8,0,0,1,3.8-.85,7.35,7.35,0,0,1,6.39,3.26,9.78,9.78,0,0,1,1.42,3.35,14.69,14.69,0,0,1,.36,3.83H118.43A10,10,0,0,0,118.77,180.86ZM130,173.93a6.81,6.81,0,0,0-1.17-2.11,5.82,5.82,0,0,0-1.84-1.48,5.26,5.26,0,0,0-2.45-.56,5.35,5.35,0,0,0-2.48.56,5.81,5.81,0,0,0-1.84,1.48A7.36,7.36,0,0,0,119,174a10.36,10.36,0,0,0-.59,2.47h12A8.2,8.2,0,0,0,130,173.93Z" transform="translate(-10.21 -137.83)"/><path class="a" d="M137.87,168.42v4.36h0.07a7.13,7.13,0,0,1,2.68-3.49,7,7,0,0,1,4.34-1.12v2.27a6.86,6.86,0,0,0-2.81.41,6.33,6.33,0,0,0-2.18,1.39,6.26,6.26,0,0,0-1.42,2.14,7.16,7.16,0,0,0-.5,2.72V187h-2.27V168.42h2.09Z" transform="translate(-10.21 -137.83)"/><path class="a" d="M148.15,180.86a7,7,0,0,0,1.1,2.36,6.28,6.28,0,0,0,1.91,1.73,5.33,5.33,0,0,0,2.77.68,5.51,5.51,0,0,0,3.89-1.3,6.82,6.82,0,0,0,1.94-3.46H162a9.07,9.07,0,0,1-2.65,4.9,7.89,7.89,0,0,1-5.45,1.73,8.65,8.65,0,0,1-3.8-.77,7,7,0,0,1-2.61-2.12,9.25,9.25,0,0,1-1.49-3.13,14.22,14.22,0,0,1-.49-3.76,13.48,13.48,0,0,1,.49-3.6,9.68,9.68,0,0,1,1.49-3.15,7.49,7.49,0,0,1,2.61-2.23,8,8,0,0,1,3.8-.85,7.35,7.35,0,0,1,6.39,3.26,9.78,9.78,0,0,1,1.42,3.35,14.69,14.69,0,0,1,.36,3.83H147.8A10,10,0,0,0,148.15,180.86Zm11.23-6.93a6.81,6.81,0,0,0-1.17-2.11,5.82,5.82,0,0,0-1.84-1.48,5.26,5.26,0,0,0-2.45-.56,5.35,5.35,0,0,0-2.48.56,5.81,5.81,0,0,0-1.84,1.48A7.36,7.36,0,0,0,148.4,174a10.36,10.36,0,0,0-.59,2.47h12A8.2,8.2,0,0,0,159.38,173.93Z" transform="translate(-10.21 -137.83)"/><path class="a" d="M172.54,168.42v1.91h-3.78v12.53a4.05,4.05,0,0,0,.31,1.75,1.66,1.66,0,0,0,1.53.7,17.53,17.53,0,0,0,1.94-.11v1.91q-0.5,0-1,0t-1,0a3.35,3.35,0,0,1-4-4.14V170.33h-3.24v-1.91h3.24v-5.58h2.27v5.58h3.78Z" transform="translate(-10.21 -137.83)"/><path class="a" d="M178,168.42v3.2h0.07a5.44,5.44,0,0,1,2.3-2.72,6.77,6.77,0,0,1,3.64-1,9.16,9.16,0,0,1,3.26.5,5.16,5.16,0,0,1,2.11,1.42,5.3,5.3,0,0,1,1.12,2.25,12.68,12.68,0,0,1,.32,3v12h-2.27V175.41a10.7,10.7,0,0,0-.22-2.21,4.67,4.67,0,0,0-.76-1.78,3.67,3.67,0,0,0-1.46-1.19,5.36,5.36,0,0,0-2.29-.43,5.77,5.77,0,0,0-2.43.49,5.24,5.24,0,0,0-1.8,1.33,6.14,6.14,0,0,0-1.15,2,8.22,8.22,0,0,0-.45,2.54V187h-2.27V168.42H178Z" transform="translate(-10.21 -137.83)"/><path class="a" d="M196.82,180.86a7,7,0,0,0,1.1,2.36,6.28,6.28,0,0,0,1.91,1.73,5.33,5.33,0,0,0,2.77.68,5.51,5.51,0,0,0,3.89-1.3,6.82,6.82,0,0,0,1.94-3.46h2.27a9.07,9.07,0,0,1-2.65,4.9,7.89,7.89,0,0,1-5.45,1.73,8.65,8.65,0,0,1-3.8-.77,7,7,0,0,1-2.61-2.12,9.25,9.25,0,0,1-1.49-3.13,14.22,14.22,0,0,1-.49-3.76,13.48,13.48,0,0,1,.49-3.6,9.68,9.68,0,0,1,1.49-3.15,7.49,7.49,0,0,1,2.61-2.23,8,8,0,0,1,3.8-.85,7.35,7.35,0,0,1,6.39,3.26,9.78,9.78,0,0,1,1.42,3.35,14.69,14.69,0,0,1,.36,3.83H196.47A10,10,0,0,0,196.82,180.86ZM208,173.93a6.81,6.81,0,0,0-1.17-2.11,5.82,5.82,0,0,0-1.84-1.48,5.26,5.26,0,0,0-2.45-.56,5.35,5.35,0,0,0-2.48.56,5.81,5.81,0,0,0-1.84,1.48,7.36,7.36,0,0,0-1.21,2.12,10.36,10.36,0,0,0-.59,2.47h12A8.2,8.2,0,0,0,208,173.93Zm-7.87-8.1,3.78-5.08h2.81L202,165.83h-1.84Z" transform="translate(-10.21 -137.83)"/><path class="a" d="M216.09,161.3v16.13l10.3-9h3l-7.92,6.88L230,187h-2.84l-7.34-10.12-3.67,3.06V187h-2.27V161.3h2.27Z" transform="translate(-10.21 -137.83)"/><path class="a" d="M243.51,180.86a7,7,0,0,0,1.1,2.36,6.28,6.28,0,0,0,1.91,1.73,5.33,5.33,0,0,0,2.77.68,5.51,5.51,0,0,0,3.89-1.3,6.82,6.82,0,0,0,1.94-3.46h2.27a9.07,9.07,0,0,1-2.65,4.9,7.89,7.89,0,0,1-5.45,1.73,8.65,8.65,0,0,1-3.8-.77,7,7,0,0,1-2.61-2.12,9.25,9.25,0,0,1-1.49-3.13,14.22,14.22,0,0,1-.49-3.76,13.48,13.48,0,0,1,.49-3.6,9.68,9.68,0,0,1,1.49-3.15,7.49,7.49,0,0,1,2.61-2.23,8,8,0,0,1,3.8-.85,7.35,7.35,0,0,1,6.39,3.26,9.78,9.78,0,0,1,1.42,3.35,14.69,14.69,0,0,1,.36,3.83H243.17A10,10,0,0,0,243.51,180.86Zm11.23-6.93a6.81,6.81,0,0,0-1.17-2.11,5.82,5.82,0,0,0-1.84-1.48,5.26,5.26,0,0,0-2.45-.56,5.35,5.35,0,0,0-2.48.56,5.81,5.81,0,0,0-1.84,1.48,7.36,7.36,0,0,0-1.21,2.12,10.36,10.36,0,0,0-.59,2.47h12A8.2,8.2,0,0,0,254.74,173.93Z" transform="translate(-10.21 -137.83)"/><path class="a" d="M275.76,189.2a7.25,7.25,0,0,1-1.42,2.81,6.21,6.21,0,0,1-2.54,1.76,10.57,10.57,0,0,1-3.83.61,11.49,11.49,0,0,1-2.74-.32,7.76,7.76,0,0,1-2.39-1,6,6,0,0,1-1.76-1.75,5.21,5.21,0,0,1-.81-2.54h2.27a4,4,0,0,0,.7,1.75,4.19,4.19,0,0,0,1.26,1.13,5.62,5.62,0,0,0,1.64.63,8.58,8.58,0,0,0,1.84.2q3.17,0,4.57-1.8a8.28,8.28,0,0,0,1.4-5.18V183h-0.07a6.63,6.63,0,0,1-2.32,2.77,6.2,6.2,0,0,1-3.58,1,9,9,0,0,1-3.82-.74,7.08,7.08,0,0,1-2.61-2,8.28,8.28,0,0,1-1.49-3,14.31,14.31,0,0,1-.47-3.73,11.57,11.57,0,0,1,.56-3.62,9,9,0,0,1,1.62-3,7.55,7.55,0,0,1,2.63-2,8.32,8.32,0,0,1,3.58-.74,6.54,6.54,0,0,1,2,.29,6.21,6.21,0,0,1,1.67.81,7.16,7.16,0,0,1,1.35,1.21,5.49,5.49,0,0,1,.92,1.44h0.07v-3.2h2.27v17.06A14.15,14.15,0,0,1,275.76,189.2Zm-5.2-5a5.9,5.9,0,0,0,1.87-1.66,7.29,7.29,0,0,0,1.13-2.36,10,10,0,0,0,.38-2.74,11.8,11.8,0,0,0-.32-2.74,7.89,7.89,0,0,0-1-2.48,5.67,5.67,0,0,0-1.85-1.8,5.25,5.25,0,0,0-2.75-.68,5.46,5.46,0,0,0-2.77.67,5.91,5.91,0,0,0-1.91,1.75,7.3,7.3,0,0,0-1.1,2.47,11.73,11.73,0,0,0-.34,2.83,10.43,10.43,0,0,0,.36,2.74,7,7,0,0,0,1.12,2.36,5.77,5.77,0,0,0,1.91,1.66,5.62,5.62,0,0,0,2.74.63A5.18,5.18,0,0,0,270.56,184.25Z" transform="translate(-10.21 -137.83)"/><path class="a" d="M280.86,168.42L287,184.26l5.72-15.84H295l-8.06,21.38a20.84,20.84,0,0,1-.94,2,4.49,4.49,0,0,1-1,1.22,3.16,3.16,0,0,1-1.22.65,6.71,6.71,0,0,1-1.78.2l-1.06-.05a2.2,2.2,0,0,1-.67-0.13v-1.91l0.77,0.13a5.45,5.45,0,0,0,.77.05,3.07,3.07,0,0,0,1.24-.22,2.62,2.62,0,0,0,.85-0.59,3.42,3.42,0,0,0,.61-0.92l0.54-1.19,0.79-2.09-7.42-18.5h2.41Z" transform="translate(-10.21 -137.83)"/><path class="a" d="M298.88,180.86a7,7,0,0,0,1.1,2.36,6.28,6.28,0,0,0,1.91,1.73,5.33,5.33,0,0,0,2.77.68,5.51,5.51,0,0,0,3.89-1.3,6.82,6.82,0,0,0,1.94-3.46h2.27a9.07,9.07,0,0,1-2.65,4.9,7.89,7.89,0,0,1-5.45,1.73,8.65,8.65,0,0,1-3.8-.77,7,7,0,0,1-2.61-2.12,9.25,9.25,0,0,1-1.49-3.13,14.22,14.22,0,0,1-.49-3.76,13.48,13.48,0,0,1,.49-3.6,9.68,9.68,0,0,1,1.49-3.15,7.49,7.49,0,0,1,2.61-2.23,8,8,0,0,1,3.8-.85,7.35,7.35,0,0,1,6.39,3.26,9.78,9.78,0,0,1,1.42,3.35,14.69,14.69,0,0,1,.36,3.83H298.54A10,10,0,0,0,298.88,180.86Zm11.23-6.93a6.81,6.81,0,0,0-1.17-2.11,5.82,5.82,0,0,0-1.84-1.48,5.26,5.26,0,0,0-2.45-.56,5.35,5.35,0,0,0-2.48.56,5.81,5.81,0,0,0-1.84,1.48,7.36,7.36,0,0,0-1.21,2.12,10.36,10.36,0,0,0-.59,2.47h12A8.2,8.2,0,0,0,310.11,173.93Z" transform="translate(-10.21 -137.83)"/><path class="a" d="M323.27,168.42v1.91h-3.78v12.53a4.05,4.05,0,0,0,.31,1.75,1.66,1.66,0,0,0,1.53.7,17.53,17.53,0,0,0,1.94-.11v1.91q-0.5,0-1,0t-1,0a3.35,3.35,0,0,1-4-4.14V170.33H314v-1.91h3.24v-5.58h2.27v5.58h3.78Z" transform="translate(-10.21 -137.83)"/><rect class="b" x="0.5" y="0.5" width="378.54" height="74.67"/></svg>